<?xml version="1.0" standalone="no"?>
<!DOCTYPE svg PUBLIC "-//W3C//DTD SVG 20010904//EN"
 "http://www.w3.org/TR/2001/REC-SVG-20010904/DTD/svg10.dtd">
<svg version="1.0" xmlns="http://www.w3.org/2000/svg"
 width="20.000000pt" height="20.000000pt" viewBox="0 0 20.000000 20.000000"
 preserveAspectRatio="xMidYMid meet">

<g transform="translate(0.000000,20.000000) scale(0.100000,-0.100000)"
fill="#000000" stroke="none">
<path d="M59 171 c-26 -26 -29 -36 -29 -90 0 -61 6 -71 27 -50 8 8 17 7 34 -5
29 -20 69 -21 69 -2 0 8 -7 16 -16 18 -11 2 -18 16 -20 42 -4 44 10 76 31 76
20 0 19 10 -2 26 -29 22 -62 16 -94 -15z m77 0 c-3 -5 -14 -7 -24 -4 -26 6
-45 -22 -48 -69 -3 -64 -24 -73 -24 -10 0 62 23 92 71 92 16 0 28 -4 25 -9z
m-19 -23 c-2 -7 -10 -12 -17 -10 -10 2 -11 0 -3 -10 6 -7 14 -23 17 -35 6 -19
3 -23 -13 -23 -17 0 -21 6 -21 33 0 32 14 57 33 57 5 0 7 -6 4 -12z m6 -108
c12 -14 13 -20 4 -20 -14 0 -37 20 -37 32 0 14 15 9 33 -12z"/>
</g>
</svg>
